<?xml version="1.0" standalone="no"?>
<!DOCTYPE svg PUBLIC "-//W3C//DTD SVG 20010904//EN"
 "http://www.w3.org/TR/2001/REC-SVG-20010904/DTD/svg10.dtd">
<svg version="1.0" xmlns="http://www.w3.org/2000/svg"
 width="710.000000pt" height="235.000000pt" viewBox="0 0 710.000000 235.000000"
 preserveAspectRatio="xMidYMid meet">

<g transform="translate(0.000000,235.000000) scale(0.100000,-0.100000)"
fill="#053B50" stroke="none">
<path d="M3540 2264 c-248 -23 -414 -58 -566 -120 -193 -77 -319 -175 -431
-331 -174 -244 -178 -593 -9 -853 50 -76 151 -182 218 -228 182 -125 463 -215
741 -238 l87 -7 0 157 c0 153 0 156 -21 156 -41 0 -164 42 -228 77 -120 67
-223 198 -264 339 -59 202 -3 420 147 570 82 81 154 121 280 154 l86 23 0 154
c0 84 -1 152 -2 151 -2 0 -19 -3 -38 -4z" fill="#053B50"/>
<path d="M3740 2115 l0 -151 77 -18 c199 -47 349 -185 420 -388 22 -61 26 -91
26 -178 0 -131 -31 -231 -102 -335 -82 -121 -191 -196 -342 -234 l-74 -19 -3
-151 -3 -151 49 0 c116 0 349 41 487 86 142 47 254 110 368 207 60 51 67 66
42 87 -20 16 -86 140 -113 210 -39 103 -53 178 -53 295 0 177 42 324 136 470
l38 59 -49 44 c-186 169 -489 285 -806 310 l-98 8 0 -151z" fill="#053B50"/>
<path d="M5673 2258 c-540 -42 -908 -268 -1034 -636 -31 -92 -33 -104 -33
-242 -1 -137 1 -150 31 -236 61 -176 159 -306 315 -416 169 -120 452 -211 731
-233 l87 -7 0 156 0 156 -24 0 c-38 0 -156 39 -220 73 -121 64 -229 204 -271
351 -21 71 -23 209 -6 286 24 102 77 196 154 275 82 82 157 123 281 155 44 11
81 22 83 24 2 2 2 70 1 152 l-3 149 -92 -7z" fill="#053B50"/>
<path d="M5930 2115 l0 -151 73 -17 c102 -24 202 -77 270 -145 31 -31 63 -66
71 -76 13 -20 14 -20 19 0 45 149 127 426 127 429 0 8 -163 55 -257 74 -54 11
-144 24 -200 28 l-103 9 0 -151z" fill="#053B50"/>
<path d="M180 2041 l0 -159 88 -7 c170 -12 228 -37 272 -115 l25 -45 0 -320
c0 -176 -4 -337 -8 -358 -4 -20 -22 -54 -40 -74 -49 -56 -103 -75 -229 -81
l-108 -5 0 -164 0 -163 483 2 482 3 3 823 2 822 -485 0 -485 0 0 -159z" fill="#053B50"/>
<path d="M1310 2043 l0 -160 164 -6 c196 -8 246 -17 351 -66 135 -64 217 -170
250 -328 18 -86 18 -150 1 -235 -38 -175 -130 -282 -296 -339 -57 -19 -91 -23
-267 -27 l-203 -4 0 -164 0 -164 228 0 c275 0 481 13 582 35 119 27 243 91
328 169 39 37 72 73 72 80 0 7 -11 23 -24 35 -37 35 -123 217 -146 310 -56
224 -9 491 119 673 l40 57 -42 42 c-82 81 -187 140 -327 183 -152 46 -255 57
-552 63 l-278 6 0 -160z" fill="#FF9B50"/>
<path d="M6541 2022 c-16 -53 -51 -169 -77 -256 l-47 -160 19 -70 c24 -95 22
-238 -5 -326 -30 -96 -101 -209 -169 -271 l-59 -54 -57 -189 c-31 -104 -54
-191 -51 -194 15 -16 348 57 372 81 6 7 31 82 56 167 25 85 113 382 196 660
l150 505 -37 36 c-40 38 -98 80 -177 126 -87 51 -81 54 -114 -55z" fill="#FF9B50"/>
<path d="M6756 1235 c-99 -333 -178 -607 -175 -609 9 -9 122 55 195 110 141
106 257 277 299 439 52 201 12 440 -100 610 -20 30 -38 55 -38 55 -1 0 -83
-272 -181 -605z" fill="#FF9B50"/>
<path d="M6025 818 c-38 -11 -76 -22 -82 -24 -10 -2 -13 -42 -13 -154 l0 -150
33 0 34 0 33 113 c18 61 40 140 50 175 10 34 18 61 17 61 -1 -1 -33 -10 -72
-21z" fill="#FF9B50"/>
<path d="M3222 358 c-17 -17 -17 -329 0 -346 14 -14 375 -17 397 -3 7 5 14 21
14 36 0 15 -7 31 -14 36 -8 5 -85 9 -171 9 l-158 0 0 95 0 95 161 2 c150 3
163 4 175 23 12 18 11 24 -2 43 -15 21 -21 22 -203 22 -132 0 -191 -4 -199
-12z" fill="#FF9B50"/>
<path d="M3731 356 c-8 -9 -11 -65 -9 -176 3 -142 5 -164 21 -174 33 -21 52 4
55 73 l3 61 134 0 134 0 3 -61 c3 -69 22 -94 55 -73 16 10 18 30 18 179 0 149
-2 169 -18 179 -33 21 -52 -4 -55 -73 l-3 -61 -134 0 -135 0 0 58 c0 32 -5 63
-12 70 -16 16 -43 15 -57 -2z" fill="#FF9B50"/>
<path d="M4292 358 c-17 -17 -17 -329 0 -346 18 -18 392 -17 407 2 8 9 11 65
9 176 -3 142 -5 164 -21 174 -12 8 -22 8 -35 0 -14 -10 -17 -30 -20 -143 l-3
-131 -134 0 -135 0 0 128 c0 130 -6 152 -40 152 -9 0 -21 -5 -28 -12z" fill="#FF9B50"/>
<path d="M4842 358 c-17 -17 -17 -329 0 -346 18 -18 46 -14 58 7 5 11 10 45
10 75 l0 56 135 0 134 0 3 -66 c3 -74 21 -99 55 -78 15 9 19 29 21 109 2 61
-1 102 -8 111 -7 7 -35 14 -63 16 l-52 3 53 20 c29 11 58 25 64 32 14 18 2 60
-20 67 -9 3 -85 -20 -167 -53 l-150 -59 -3 46 c-2 26 -8 52 -14 59 -13 16 -40
17 -56 1z" fill="#FF9B50"/>
<path d="M5380 185 l0 -185 203 0 c145 0 206 3 215 12 18 18 16 142 -3 158
-13 11 -13 15 0 33 18 26 20 138 3 155 -9 9 -70 12 -215 12 l-203 0 0 -185z
m350 70 l0 -25 -135 0 -135 0 0 25 0 25 135 0 135 0 0 -25z m0 -140 l0 -25
-135 0 -135 0 0 25 0 25 135 0 135 0 0 -25z" fill="#FF9B50"/>
<path d="M5952 358 c-8 -8 -12 -61 -12 -173 0 -112 4 -165 12 -173 8 -8 67
-12 199 -12 182 0 188 1 203 22 13 19 14 25 2 43 -12 19 -25 20 -175 23 l-161
2 0 25 0 25 159 0 c151 0 161 1 175 21 15 22 11 48 -8 61 -6 4 -82 8 -168 8
l-158 0 0 25 0 25 158 0 c86 0 162 4 168 8 19 13 23 39 8 61 -15 20 -23 21
-203 21 -132 0 -191 -4 -199 -12z" fill="#FF9B50"/>
<path d="M6481 356 c-8 -9 -11 -65 -9 -176 3 -142 5 -164 21 -174 12 -8 22 -8
35 0 14 9 18 31 22 119 l5 107 147 -116 c80 -64 153 -116 161 -116 33 0 38 25
35 190 -3 142 -5 164 -20 174 -13 8 -23 8 -35 0 -15 -9 -19 -31 -23 -117 l-5
-105 -138 108 c-164 128 -173 133 -196 106z" fill="#FF9B50"/>
<path d="M7031 356 c-8 -9 -11 -65 -9 -176 3 -142 5 -164 21 -174 12 -8 22 -8
35 0 15 10 17 32 20 174 3 168 -2 190 -38 190 -10 0 -23 -6 -29 -14z" fill="#FF9B50"/>
<path d="M380 310 c0 -20 7 -20 1350 -20 1343 0 1350 0 1350 20 0 20 -7 20
-1350 20 -1343 0 -1350 0 -1350 -20z" fill="#FF9B50"/>
<path d="M700 230 c0 -20 7 -20 1190 -20 1183 0 1190 0 1190 20 0 20 -7 20
-1190 20 -1183 0 -1190 0 -1190 -20z" fill="#FF9B50"/>
<path d="M980 150 c0 -20 11 -20 1050 -20 1045 0 1050 0 1050 20 0 20 -5 20
-1050 20 -1039 0 -1050 -1 -1050 -20z" fill="#FF9B50"/>
<path d="M1230 65 c0 -13 109 -15 925 -15 816 0 925 2 925 15 0 13 -109 15
-925 15 -816 0 -925 -2 -925 -15z" fill="#FF9B50"/>
</g>
</svg>
