<?xml version="1.0" standalone="no"?>
<!DOCTYPE svg PUBLIC "-//W3C//DTD SVG 20010904//EN"
 "http://www.w3.org/TR/2001/REC-SVG-20010904/DTD/svg10.dtd">
<svg version="1.0" xmlns="http://www.w3.org/2000/svg"
 width="483.000000pt" height="308.000000pt" viewBox="0 0 483.000000 308.000000"
 preserveAspectRatio="xMidYMid meet">

<g transform="translate(0.000000,308.000000) scale(0.100000,-0.100000)"
fill="#053B50" stroke="none">
<path d="M750 1866 c-177 -32 -335 -113 -467 -240 -187 -178 -279 -394 -277
-651 1 -317 156 -589 430 -761 90 -55 237 -109 339 -123 39 -5 285 -10 548
-11 l478 -1 -3 538 c-4 520 -5 540 -26 607 -82 261 -250 456 -494 571 -152 72
-364 100 -528 71z m239 -356 c67 -11 174 -55 217 -89 15 -12 30 -18 35 -15 5
3 8 1 7 -4 -2 -6 9 -20 23 -33 50 -45 106 -128 134 -196 25 -61 29 -81 29
-183 1 -98 -3 -126 -24 -185 -13 -38 -23 -74 -22 -78 1 -5 -3 -5 -9 -1 -9 5
-10 2 -5 -12 4 -10 4 -15 0 -11 -8 8 -49 -53 -46 -66 1 -5 -1 -6 -6 -3 -11 6
-64 -47 -57 -57 3 -4 2 -5 -1 -2 -4 2 -20 -7 -37 -21 -109 -92 -305 -132 -457
-95 -30 8 -57 13 -59 12 -2 -2 -7 1 -10 6 -3 5 -32 24 -64 41 -56 31 -103 68
-135 104 -9 9 -20 14 -25 11 -6 -4 -7 -1 -2 7 4 7 3 15 -3 19 -15 9 -78 140
-92 191 -30 109 -9 282 47 380 29 51 114 159 125 159 4 1 16 8 25 16 10 8 27
22 38 31 17 13 18 15 2 10 -11 -4 -16 -2 -12 5 4 6 13 8 20 5 7 -2 41 7 76 21
101 41 181 50 288 33z m281 -966 c0 -8 -19 -13 -24 -6 -3 5 1 9 9 9 8 0 15 -2
15 -3z"/>
<path d="M2170 980 l0 -310 345 0 346 0 24 25 c29 28 31 59 11 156 -38 179
-171 307 -401 386 -69 24 -230 53 -292 53 l-33 0 0 -310z m269 124 c58 -20
124 -48 146 -63 43 -29 116 -115 153 -180 l23 -41 -221 0 -220 0 0 160 c0 88
3 160 7 160 3 0 54 -16 112 -36z" fill="#053B50"/>
<path d="M3133 1280 c-12 -5 -25 -20 -28 -32 -3 -13 -5 -141 -3 -285 2 -198 6
-265 16 -275 19 -19 685 -19 704 0 10 10 13 77 13 293 0 266 -1 281 -19 295
-16 11 -79 14 -340 13 -177 0 -331 -4 -343 -9z m557 -300 l0 -160 -220 0 -220
0 0 160 0 160 220 0 220 0 0 -160z" fill="#053B50"/>
<path d="M4093 1280 c-12 -5 -25 -20 -28 -32 -3 -13 -5 -141 -3 -285 2 -198 6
-265 16 -275 19 -19 685 -19 704 0 10 10 13 77 13 293 0 266 -1 281 -19 295
-16 11 -79 14 -340 13 -177 0 -331 -4 -343 -9z m557 -300 l0 -160 -220 0 -220
0 0 160 0 160 220 0 220 0 0 -160z" fill="#053B50"/>
<path d="M3610 540 c-19 -19 -20 -33 -20 -219 0 -168 2 -202 16 -215 13 -14
51 -16 260 -16 150 0 253 4 265 10 18 10 19 23 19 225 0 202 -1 215 -19 225
-12 6 -114 10 -260 10 -228 0 -242 -1 -261 -20z" fill="#053B50"/>
<path d="M2167 532 c-24 -26 -25 -233 -1 -256 13 -14 48 -16 225 -16 l209 0 0
-40 0 -40 -208 0 c-190 0 -210 -2 -225 -18 -22 -24 -21 -55 1 -75 16 -15 50
-17 265 -17 210 0 248 2 261 16 13 12 16 39 16 133 0 102 -3 120 -18 134 -16
15 -47 17 -225 17 l-207 0 0 35 0 35 209 0 c206 0 210 0 225 22 21 29 20 51
-2 71 -16 15 -50 17 -264 17 -225 0 -246 -2 -261 -18z" fill="#053B50"/>
<path d="M2887 532 c-15 -16 -17 -47 -17 -219 0 -181 2 -201 18 -216 23 -21
41 -21 70 -1 19 13 22 24 22 90 l0 74 170 0 170 0 0 -73 c0 -59 4 -77 18 -90
24 -22 55 -21 75 1 15 16 17 47 17 219 0 181 -2 201 -18 216 -24 22 -55 21
-75 -1 -13 -14 -17 -38 -17 -90 l0 -72 -170 0 -170 0 0 74 c0 66 -3 77 -22 90
-29 21 -51 20 -71 -2z" fill="red"/> 
<path d="M4276 528 c-21 -29 -20 -51 2 -71 15 -13 39 -17 115 -17 l97 0 0
-163 c0 -146 2 -166 18 -180 24 -22 55 -21 75 1 14 16 17 44 17 180 l0 162 93
0 c78 0 97 3 110 18 22 24 21 55 -1 75 -16 15 -50 17 -265 17 -243 0 -246 0
-261 -22z" fill="#053B50"/>
</g>
</svg>
